<svg width="21" height="22" viewBox="0 0 21 22" fill="none" xmlns="http://www.w3.org/2000/svg">
<g id="Bag">
<path id="Path_33955" fill-rule="evenodd" clip-rule="evenodd" d="M14.5137 20.5H6.16592C3.09955 20.5 0.747152 19.3924 1.41534 14.9348L2.19338 8.89357C2.60528 6.66931 4.02404 5.81805 5.26889 5.81805H15.4474C16.7105 5.81805 18.0469 6.73339 18.5229 8.89357L19.3009 14.9348C19.8684 18.889 17.5801 20.5 14.5137 20.5Z" stroke="#53545C" stroke-width="1.5" stroke-linecap="round" stroke-linejoin="round"/>
<path id="Path_33956" d="M14.651 5.59839C14.651 3.21232 12.7167 1.27802 10.3307 1.27802V1.27802C9.18168 1.27315 8.07807 1.72618 7.26388 2.53694C6.44969 3.34769 5.99199 4.44938 5.992 5.59839H5.992" stroke="#53545C" stroke-width="1.5" stroke-linecap="round" stroke-linejoin="round"/>
<path id="Line_192" d="M13.2963 10.1018H13.2506" stroke="#53545C" stroke-width="1.5" stroke-linecap="round" stroke-linejoin="round"/>
<path id="Line_193" d="M7.46572 10.1018H7.41995" stroke="#53545C" stroke-width="1.5" stroke-linecap="round" stroke-linejoin="round"/>
</g>
</svg>
