<svg width="45" height="44" viewBox="0 0 45 44" fill="none" xmlns="http://www.w3.org/2000/svg">
<g id="Graph">
<path id="Path" d="M18.5074 8.03699C18.6177 8.2616 18.6906 8.50214 18.7233 8.74942L19.3265 17.7192L19.626 22.2277C19.6291 22.6913 19.7018 23.152 19.8419 23.5948C20.2035 24.4539 21.0736 24.9999 22.0202 24.9618L36.4443 24.0184C37.0689 24.0081 37.6721 24.2417 38.1211 24.6678C38.4953 25.0229 38.7369 25.4874 38.813 25.987L38.8385 26.2904C38.2416 34.5556 32.1713 41.4494 23.9232 43.229C15.6751 45.0086 7.21712 41.2493 3.14128 33.9923C1.96625 31.884 1.23232 29.5666 0.982573 27.1761C0.878241 26.4685 0.8323 25.7538 0.8452 25.0389C0.832319 16.1776 7.1426 8.51676 15.9758 6.66991C17.0389 6.50438 18.0811 7.06718 18.5074 8.03699Z" fill="#97A5EB"/>
<path id="Path_2" opacity="0.4" d="M24.3948 0.335118C34.2745 0.586468 42.5781 7.69088 44.1764 17.26L44.1612 17.3306L44.1176 17.4333L44.1236 17.7151C44.101 18.0886 43.9568 18.4478 43.7084 18.7381C43.4495 19.0404 43.0959 19.2462 42.7065 19.3261L42.4691 19.3587L25.8274 20.437C25.2738 20.4916 24.7227 20.3131 24.311 19.9459C23.968 19.6399 23.7487 19.2269 23.6867 18.7818L22.5697 2.16431C22.5503 2.10812 22.5503 2.04721 22.5697 1.99102C22.585 1.53297 22.7866 1.1 23.1295 0.788841C23.4725 0.477686 23.9282 0.314276 24.3948 0.335118Z" fill="#FFCC91"/>
</g>
</svg>
