<svg width="14" height="14" viewBox="0 0 14 14" fill="none" xmlns="http://www.w3.org/2000/svg">
<g id="Home">
<path id="Home_2" d="M5.09581 12.8548V10.8102C5.0958 10.2921 5.5171 9.87115 6.03895 9.86789H7.95506C8.47924 9.86789 8.90417 10.2898 8.90417 10.8102V12.8488C8.90416 13.2982 9.26934 13.6634 9.72195 13.6667H11.0292C11.6397 13.6682 12.2258 13.4285 12.6581 13.0005C13.0904 12.5724 13.3333 11.9912 13.3333 11.385V5.57724C13.3333 5.0876 13.1147 4.62315 12.7364 4.30901L8.29531 0.782856C7.519 0.166092 6.41024 0.186016 5.65692 0.830266L1.31133 4.30901C0.91515 4.61389 0.678358 5.07972 0.666656 5.57724V11.3791C0.666656 12.6425 1.69824 13.6667 2.97077 13.6667H4.24818C4.4661 13.6682 4.67565 13.5834 4.8303 13.431C4.98496 13.2785 5.07194 13.0711 5.07193 12.8548H5.09581Z" fill="#5570F1"/>
</g>
</svg>
